<?xml version="1.0" encoding="UTF-8" standalone="no"?>
<svg
   xmlns:dc="http://purl.org/dc/elements/1.1/"
   xmlns:cc="http://creativecommons.org/ns#"
   xmlns:rdf="http://www.w3.org/1999/02/22-rdf-syntax-ns#"
   xmlns:svg="http://www.w3.org/2000/svg"
   xmlns="http://www.w3.org/2000/svg"
   xmlns:xlink="http://www.w3.org/1999/xlink"
   version="1.1"
   id="svg2"
   viewBox="0 0 517.45032 535.64048"
   height="151.16965mm"
   width="146.03598mm">
  <defs
     id="defs4" />
  <metadata
     id="metadata7">
    <rdf:RDF>
      <cc:Work
         rdf:about="">
        <dc:format>image/svg+xml</dc:format>
        <dc:type
           rdf:resource="http://purl.org/dc/dcmitype/StillImage" />
        <dc:title></dc:title>
      </cc:Work>
    </rdf:RDF>
  </metadata>
  <g
     transform="translate(-86.081546,-193.53537)"
     id="layer1">
    <g
       id="g5652">
      <path
         style="color:#000000;font-style:normal;font-variant:normal;font-weight:normal;font-stretch:normal;font-size:medium;line-height:normal;font-family:sans-serif;text-indent:0;text-align:start;text-decoration:none;text-decoration-line:none;text-decoration-style:solid;text-decoration-color:#000000;letter-spacing:normal;word-spacing:normal;text-transform:none;direction:ltr;block-progression:tb;writing-mode:lr-tb;baseline-shift:baseline;text-anchor:start;white-space:normal;clip-rule:nonzero;display:inline;overflow:visible;visibility:visible;opacity:0.99299999;isolation:auto;mix-blend-mode:normal;color-interpolation:sRGB;color-interpolation-filters:linearRGB;solid-color:#000000;solid-opacity:1;fill:#9b4dca;fill-opacity:1;fill-rule:nonzero;stroke:none;stroke-width:50;stroke-linecap:round;stroke-linejoin:miter;stroke-miterlimit:4;stroke-dasharray:none;stroke-dashoffset:0;stroke-opacity:1;color-rendering:auto;image-rendering:auto;shape-rendering:auto;text-rendering:auto;enable-background:accumulate"
         d="M 481.71553,315.22066 C 384.3201,227.92092 233.83879,236.14644 146.53905,333.54188 59.239309,430.93732 67.464831,581.41863 164.86027,668.71837 262.25571,756.01811 412.73702,747.79259 500.03676,650.39714 587.3365,553.00171 579.11098,402.5204 481.71553,315.22066 Z m -33.37294,37.23233 c 77.27359,69.26366 83.7255,187.29761 14.46184,264.57121 -69.26366,77.27359 -187.29762,83.7255 -264.57122,14.46184 -77.27359,-69.26367 -83.72549,-187.29762 -14.46183,-264.57122 69.26366,-77.27359 187.29761,-83.72549 264.57121,-14.46183 z"
         id="path4136" />
      <rect
         style="opacity:0.99299999;fill:none;fill-opacity:1;stroke:#9b4dca;stroke-width:48.31462097;stroke-linecap:round;stroke-miterlimit:4;stroke-dasharray:none;stroke-opacity:1"
         id="rect5586"
         width="12.797057"
         height="96.639717"
         x="566.13055"
         y="-159.4005"
         transform="matrix(0.74464661,0.66745893,-0.66745893,0.74464661,0,0)" />
      <path
         style="opacity:0.99299999;fill:#9b4dca;fill-opacity:1;stroke:none;stroke-width:50;stroke-linecap:round;stroke-miterlimit:4;stroke-dasharray:none;stroke-opacity:1"
         id="path5620"
         d="m -528.43335,-155.87739 a 54.548233,51.51778 0 0 1 -74.86334,15.68198 54.548233,51.51778 0 0 1 -17.49384,-70.51271 54.548233,51.51778 0 0 1 74.44712,-17.35962 54.548233,51.51778 0 0 1 19.26509,70.09969"
         transform="matrix(-0.74464661,-0.66745893,-0.66745893,0.74464661,0,0)" />
    </g>
    <path
       id="rect5674"
       d="m 220.21289,400.81445 0,100.00391 64.65039,0 0,-62.62891 -19.19336,0 0,-37.375 -45.45703,0 z"
       style="opacity:0.99299999;fill:#9b4dca;fill-opacity:1;stroke:none;stroke-width:50;stroke-linecap:round;stroke-miterlimit:4;stroke-dasharray:none;stroke-opacity:1" />
    <use
       height="100%"
       width="100%"
       transform="translate(128.28937,-1.0101525)"
       id="use5676"
       xlink:href="#rect5674"
       y="0"
       x="0" />
  </g>
</svg>
