<?xml version="1.0" encoding="UTF-8" standalone="no"?>
<svg
   xmlns:dc="http://purl.org/dc/elements/1.1/"
   xmlns:cc="http://creativecommons.org/ns#"
   xmlns:rdf="http://www.w3.org/1999/02/22-rdf-syntax-ns#"
   xmlns:svg="http://www.w3.org/2000/svg"
   xmlns="http://www.w3.org/2000/svg"
   xmlns:xlink="http://www.w3.org/1999/xlink"
   version="1.1"
   id="svg2"
   viewBox="0 0 48.302014 50.000002"
   height="14.111112mm"
   width="13.631902mm">
  <defs
     id="defs4" />
  <metadata
     id="metadata7">
    <rdf:RDF>
      <cc:Work
         rdf:about="">
        <dc:format>image/svg+xml</dc:format>
        <dc:type
           rdf:resource="http://purl.org/dc/dcmitype/StillImage" />
        <dc:title></dc:title>
      </cc:Work>
    </rdf:RDF>
  </metadata>
  <path
     style="color:#000000;font-style:normal;font-variant:normal;font-weight:normal;font-stretch:normal;font-size:medium;line-height:normal;font-family:sans-serif;text-indent:0;text-align:start;text-decoration:none;text-decoration-line:none;text-decoration-style:solid;text-decoration-color:#000000;letter-spacing:normal;word-spacing:normal;text-transform:none;direction:ltr;block-progression:tb;writing-mode:lr-tb;baseline-shift:baseline;text-anchor:start;white-space:normal;clip-rule:nonzero;display:inline;overflow:visible;visibility:visible;opacity:0.99299999;isolation:auto;mix-blend-mode:normal;color-interpolation:sRGB;color-interpolation-filters:linearRGB;solid-color:#000000;solid-opacity:1;fill:#ffffff;fill-opacity:1;fill-rule:nonzero;stroke:none;stroke-width:50;stroke-linecap:round;stroke-linejoin:miter;stroke-miterlimit:4;stroke-dasharray:none;stroke-dashoffset:0;stroke-opacity:1;color-rendering:auto;image-rendering:auto;shape-rendering:auto;text-rendering:auto;enable-background:accumulate"
     d="M 36.930925,11.358859 C 27.839433,3.2097605 13.792576,3.9775815 5.6434777,13.069075 -2.5056205,22.160568 -1.7377994,36.207425 7.3536938,44.356523 16.445187,52.505621 30.492044,51.7378 38.641142,42.646306 46.79024,33.554814 46.022419,19.507957 36.930925,11.358859 Z m -3.115237,3.475496 c 7.213196,6.465499 7.815457,17.483518 1.349958,24.696714 -6.465499,7.213195 -17.483519,7.815457 -24.696715,1.349958 C 3.2557354,34.415527 2.6534751,23.397508 9.1189739,16.184312 15.584473,8.9711163 26.602492,8.368856 33.815688,14.834355 Z"
     id="path4136" />
  <rect
     style="opacity:0.99299999;fill:#ffffff;fill-opacity:1;stroke:#ffffff;stroke-width:4.50998592;stroke-linecap:round;stroke-miterlimit:4;stroke-dasharray:none;stroke-opacity:1"
     id="rect5586"
     width="1.1945565"
     height="9.0209494"
     x="34.804436"
     y="-22.968767"
     transform="matrix(0.74464658,0.66745896,-0.66745896,0.74464658,0,0)" />
  <path
     style="opacity:0.99299999;fill:#ffffff;fill-opacity:1;stroke:none;stroke-width:50;stroke-linecap:round;stroke-miterlimit:4;stroke-dasharray:none;stroke-opacity:1"
     id="path5620"
     d="M 38.407877,4.0230939 A 5.0918696,4.8089884 41.871248 0 0 42.63456,9.7774887 5.0918696,4.8089884 41.871248 0 0 48.243833,5.9661052 5.0918696,4.8089884 41.871248 0 0 44.150606,0.12103021 5.0918696,4.8089884 41.871248 0 0 38.443947,3.7933474" />
  <path
     style="opacity:0.99299999;fill:#ffffff;fill-opacity:1;stroke:none;stroke-width:50;stroke-linecap:round;stroke-miterlimit:4;stroke-dasharray:none;stroke-opacity:1"
     d="m 12.52065,19.348713 0,9.334984 6.034868,0 0,-5.84617 -1.791627,0 0,-3.488814 -4.243241,0 z"
     id="rect5674" />
  <use
     style="fill:#ffffff"
     x="0"
     y="0"
     xlink:href="#rect5674"
     id="use5676"
     transform="translate(11.975324,-0.09429389)"
     width="100%"
     height="100%" />
</svg>
